<svg id="Page-1" xmlns="http://www.w3.org/2000/svg" viewBox="0 0 20.1 20"><title>apropos</title><g id="Dribbble-Light-Preview"><g id="icons"><path id="sign_round-" data-name="sign round-" d="M12,9a1,1,0,0,1-1,1H5a1,1,0,0,1-1.09-.9A1,1,0,0,1,4.8,8H11A1,1,0,0,1,12,9Zm2,2a1,1,0,0,1-1,1H3a1,1,0,0,1-1-1H2V7A1,1,0,0,1,3,6H13a1,1,0,0,1,1,1ZM6,4h4V2H6ZM18,0H1A1,1,0,0,0-.09.9,1,1,0,0,0,.8,2,.67.67,0,0,0,1,2H4V4H2A2.08,2.08,0,0,0,0,6.07v6a1.91,1.91,0,0,0,1.93,1.89H14a1.92,1.92,0,0,0,2-1.82v-6A2.08,2.08,0,0,0,14,4H12V2h5a1.09,1.09,0,0,1,1,1.1V19a1,1,0,0,0,2,0V2.09A2.08,2.08,0,0,0,18,0Z" transform="translate(0.1 0)" fill="#fff" fill-rule="evenodd"/></g></g></svg>