<svg id="Layer_1" data-name="Layer 1" xmlns="http://www.w3.org/2000/svg" viewBox="0 0 20 20"><title>deconnexion</title><g id="Page-1"><g id="Dribbble-Light-Preview"><g id="icons"><path id="arrow_left-" data-name="arrow left-" d="M2,3A1,1,0,0,1,3,2H5a1,1,0,0,1,1,1V17a1,1,0,0,1-1,1H3a1,1,0,0,1-1-1ZM2,20h4a2,2,0,0,0,2-2V2a2,2,0,0,0-2-2H2A2,2,0,0,0,0,2V18A2,2,0,0,0,2,20Zm8.87-9h5a.55.55,0,0,1,.49.6.73.73,0,0,1-.14.31L14.6,13.57a1,1,0,0,0,0,1.37h0A1,1,0,0,0,16,15l3.45-3.37a1.87,1.87,0,0,0,.05-2.64l-.05,0L16,5.52a1,1,0,0,0-1.38,0,.94.94,0,0,0,0,1.33l0,0,1.64,1.46c.31.3.09.67-.34.67h-5a1,1,0,0,0,0,2Z" transform="translate(0 0)" fill="#fff" fill-rule="evenodd"/></g></g></g></svg>