<svg id="Layer_1" data-name="Layer 1" xmlns="http://www.w3.org/2000/svg" viewBox="0 0 20 20"><title>langue</title><g id="Page-1"><g id="Dribbble-Light-Preview"><g id="icons"><path id="globe_network-" data-name="globe network-" d="M12.31,17.66A15.07,15.07,0,0,0,14.51,11h3.42a8,8,0,0,1-5.61,6.66M10,17.51A13,13,0,0,1,7.5,11h5A13.11,13.11,0,0,1,10,17.51M2.07,11H5.5a15.11,15.11,0,0,0,2.2,6.67A8,8,0,0,1,2.07,11M7.29,2.48A15.18,15.18,0,0,0,5.47,9H2.07A8,8,0,0,1,7.29,2.48M10,2s0,0,0,0,0,0,0,0a0,0,0,0,1,0,0,13,13,0,0,1,2.51,7H7.47A13.09,13.09,0,0,1,10,2m8,7h-3.4A15,15,0,0,0,12.7,2.47,8,8,0,0,1,17.93,9M10.86,0A10,10,0,1,0,20,10.86,8.38,8.38,0,0,0,20,10,10,10,0,0,0,10.86,0" transform="translate(0 0)" fill="#fff" fill-rule="evenodd"/></g></g></g></svg>