<svg id="Layer_1" data-name="Layer 1" xmlns="http://www.w3.org/2000/svg" viewBox="0 0 14 20"><title>securite</title><g id="Page-1"><g id="Dribbble-Light-Preview"><g id="icons"><path id="lock_close_round-" data-name="lock close round-" d="M12,17a1,1,0,0,1-1,1H3a1,1,0,0,1-1-1V9A1,1,0,0,1,3,8h8a1,1,0,0,1,1,1ZM5,4A2,2,0,0,1,7,2,2.07,2.07,0,0,1,9,4V6H5Zm6,2V4A4.09,4.09,0,0,0,6.84,0h0a3.76,3.76,0,0,0-.66.1A4.25,4.25,0,0,0,3,4.27V6H2A2,2,0,0,0,0,8V18a2,2,0,0,0,2,2H12a2,2,0,0,0,2-2V8a2,2,0,0,0-2-2Z" transform="translate(0 0.02)" fill="#fff" fill-rule="evenodd"/></g></g></g></svg>