<svg id="Page-1" xmlns="http://www.w3.org/2000/svg" viewBox="0 0 15 20"><title>support</title><g id="Dribbble-Light-Preview"><g id="icons"><path id="phone_phone-" data-name="phone phone-" d="M13,0H7A2,2,0,0,0,5,2V3A1,1,0,0,0,7,3,1,1,0,0,1,8,2h4a1,1,0,0,1,1,1v8a1,1,0,0,1-1,1,1,1,0,0,0,0,2h1a2,2,0,0,0,2-2V2a2,2,0,0,0-2-2M8,17V8A1,1,0,0,0,7,7H3A1,1,0,0,0,2,8v9a1,1,0,0,0,1,1H7a1,1,0,0,0,1-1M2,5H8a2,2,0,0,1,2,2V18a2,2,0,0,1-2,2H2a2,2,0,0,1-2-2V7A2,2,0,0,1,2,5M6,15H6a1,1,0,1,1-1-1,1,1,0,0,1,1,1" fill="#fff" fill-rule="evenodd"/></g></g></svg>