<svg id="Layer_1" data-name="Layer 1" xmlns="http://www.w3.org/2000/svg" viewBox="0 0 16 16"><title>banque</title><g id="Page-1"><g id="Dribbble-Light-Preview"><g id="icons"><path id="sim_card-" data-name="sim card-" d="M9.6,11.2h0A1.6,1.6,0,0,0,8,9.6H8V7.2a.8.8,0,0,1,.8-.8h.8A1.6,1.6,0,0,0,11.2,8h0v2.4a.8.8,0,0,1-.8.8Zm3.2-4.8a1.6,1.6,0,0,0-1.6-1.6H8A1.6,1.6,0,0,0,6.4,6.4h0v4.8A1.6,1.6,0,0,0,8,12.8h3.2a1.6,1.6,0,0,0,1.6-1.6h0Zm.8,8H2.4a.8.8,0,0,1-.8-.8v-8a.39.39,0,0,1,.12-.28L5.35,1.72a.39.39,0,0,1,.28-.12h8a.8.8,0,0,1,.8.8V13.6A.8.8,0,0,1,13.6,14.4ZM4.57.24.24,4.57A.8.8,0,0,0,0,5.13V14.4A1.6,1.6,0,0,0,1.6,16H14.4A1.6,1.6,0,0,0,16,14.4h0V1.6A1.6,1.6,0,0,0,14.4,0H5.13a.78.78,0,0,0-.56.24Z" transform="translate(0 0)" fill="#414141" fill-rule="evenodd"/></g></g></g></svg>