<svg id="Page-1" xmlns="http://www.w3.org/2000/svg" viewBox="0 0 16 16"><title>expiration</title><g id="Dribbble-Light-Preview"><g id="icons"><path id="calendar-" d="M8.8,8.8v2.4a.8.8,0,0,1-1.6,0V9.6a.8.8,0,0,0-.8-.8h0a.8.8,0,0,1,0-1.6h.8A1.6,1.6,0,0,1,8.8,8.8Zm5.6,4.8a.8.8,0,0,1-.8.8H2.4a.8.8,0,0,1-.8-.8h0v-8a.8.8,0,0,1,.8-.8H13.6a.8.8,0,0,1,.8.8h0Zm0-12V.8a.8.8,0,0,0-1.6,0v.8h-4V.8A.8.8,0,0,0,7.2.8v.8h-4V.8A.8.8,0,0,0,1.6.8v.8A1.6,1.6,0,0,0,0,3.2H0V14.4A1.6,1.6,0,0,0,1.6,16H14.4A1.6,1.6,0,0,0,16,14.4h0V3.2a1.6,1.6,0,0,0-1.6-1.6Z" transform="translate(0)" fill="#414141" fill-rule="evenodd"/></g></g></svg>