<svg id="Layer_1" data-name="Layer 1" xmlns="http://www.w3.org/2000/svg" viewBox="0 0 16 16"><title>utilisateur</title><g id="Page-1"><g id="Dribbble-Light-Preview"><g id="icons"><path id="profile-" d="M8,8a3.2,3.2,0,1,1,3.21-3.2A3.19,3.19,0,0,1,8,8m3,.54a4.78,4.78,0,0,0,1.75-4.48,4.83,4.83,0,0,0-9.59.74A4.77,4.77,0,0,0,5,8.54a7.64,7.64,0,0,0-5,6.57A.82.82,0,0,0,.73,16H.8a.79.79,0,0,0,.8-.71,6.44,6.44,0,0,1,12.8,0,.78.78,0,0,0,.79.71.8.8,0,0,0,.8-.82v-.07a7.62,7.62,0,0,0-5-6.57" transform="translate(0 0)" fill="#414141" fill-rule="evenodd"/></g></g></g></svg>