<svg id="Page-1" xmlns="http://www.w3.org/2000/svg" viewBox="0 0 21 20"><title>navBar5</title><g id="Dribbble-Light-Preview"><g id="icons"><path id="menu_navigation_grid-" data-name="menu navigation grid-" d="M18.9,17a1.07,1.07,0,0,1-1.1,1H14.65a1,1,0,0,1-1-1V14a1,1,0,0,1,1-1H17.8a1.08,1.08,0,0,1,1.1,1Zm-1.1-6H14.65a3,3,0,0,0-3.1,3v3a3,3,0,0,0,3.07,3H17.8A3.11,3.11,0,0,0,21,17V14A3.13,3.13,0,0,0,17.8,11ZM7.35,17a1.07,1.07,0,0,1-1.1,1H3.1a1,1,0,0,1-1-1V14a1,1,0,0,1,1-1H6.25a1.08,1.08,0,0,1,1.1,1Zm-1.1-6H3.1A3,3,0,0,0,0,14v3a3,3,0,0,0,3.07,3H6.25a3.12,3.12,0,0,0,3.2-3V14A3.13,3.13,0,0,0,6.25,11ZM18.9,6a1.07,1.07,0,0,1-1.1,1H14.65a1,1,0,0,1-1-1V3a1,1,0,0,1,1-1H17.8a1.08,1.08,0,0,1,1.1,1ZM17.8,0H14.65a3,3,0,0,0-3.1,3V6a3,3,0,0,0,3.07,3H17.8A3.11,3.11,0,0,0,21,6V3A3.13,3.13,0,0,0,17.8,0ZM7.35,6a1.07,1.07,0,0,1-1.1,1H3.1a1,1,0,0,1-1-1V3a1,1,0,0,1,1-1H6.25a1.08,1.08,0,0,1,1.1,1ZM6.25,0H3.1A3,3,0,0,0,0,3V6A3,3,0,0,0,3.07,9H6.25a3.12,3.12,0,0,0,3.2-3V3A3.13,3.13,0,0,0,6.25,0Z" transform="translate(0 0)" fill="#979797" fill-rule="evenodd"/></g></g></svg>