<svg id="Page-1" xmlns="http://www.w3.org/2000/svg" viewBox="0 0 21 20"><title>navBar2</title><g id="Dribbble-Light-Preview"><g id="icons"><path id="stats-" d="M18.9,17a1,1,0,0,1-2.1,0V3a1.05,1.05,0,0,1,2.1,0Zm0-17H16.8a2.05,2.05,0,0,0-2.1,2h0V18a2.05,2.05,0,0,0,2.1,2h2.1A2.05,2.05,0,0,0,21,18h0V2a2.05,2.05,0,0,0-2.1-2ZM4.2,17a1.05,1.05,0,0,1-2.1,0V7A1.05,1.05,0,0,1,4.2,7Zm0-13H2.1A2.05,2.05,0,0,0,0,6H0V18a2.05,2.05,0,0,0,2.1,2H4.2a2.05,2.05,0,0,0,2.1-2h0V6A2.05,2.05,0,0,0,4.2,4Zm7.35,13a1.05,1.05,0,0,1-2.1,0V13a1.05,1.05,0,0,1,2.1,0Zm0-7H9.45a2.05,2.05,0,0,0-2.1,2h0v6a2.05,2.05,0,0,0,2.1,2h2.1a2.05,2.05,0,0,0,2.1-2h0V12a2.05,2.05,0,0,0-2.1-2Z" transform="translate(0 0)" fill="#979797" fill-rule="evenodd"/></g></g></svg>