<svg id="Layer_1" data-name="Layer 1" xmlns="http://www.w3.org/2000/svg" viewBox="0 0 18.94 21.01"><title>navBar4</title><g id="Group_46" data-name="Group 46"><g id="Page-1"><g id="Dribbble-Light-Preview"><g id="icons"><path id="notification_bell-" data-name="notification bell-" d="M12.75,15H4.25V9A4,4,0,0,1,8.19,5H8.5a4,4,0,0,1,4.24,3.69c0,.1,0,.21,0,.31ZM9.56,18a1.06,1.06,0,0,1-2.12,0V17H9.56Zm6.38-3a1,1,0,0,1-1.06-1V9A5.82,5.82,0,0,0,9.56,3.08V2A1.06,1.06,0,0,0,7.44,2V3.08A5.82,5.82,0,0,0,2.12,9v5a1,1,0,0,1-1.06,1,1,1,0,1,0,0,2H5.31v1a3.2,3.2,0,0,0,6.38,0V17h4.25a1,1,0,0,0,0-2Z" transform="translate(-0.06)" fill="#979797" fill-rule="evenodd"/></g></g></g><g id="Ellipse_7" data-name="Ellipse 7"><circle cx="13.94" cy="5" r="5" fill="#d91717"/><circle cx="13.94" cy="5" r="4.5" fill="none" stroke="#fff"/></g></g></svg>