<svg id="Layer_1" data-name="Layer 1" xmlns="http://www.w3.org/2000/svg" viewBox="0 0 17 19.01"><title>navBar1</title><g id="Page-1"><g id="Dribbble-Light-Preview"><g id="icons"><path id="home-" d="M14.88,16.2c0,.55-.48.79-1.07.79H12.75c-.59,0-1.06-.24-1.06-.79v-1A2.25,2.25,0,0,0,9.56,13H7.44A2.25,2.25,0,0,0,5.31,15.2v1c0,.55-.47.79-1.06.79H3.19c-.59,0-1.07-.24-1.07-.79V8.14a.54.54,0,0,1,.16-.36L7.74,2.65a1.11,1.11,0,0,1,1.5,0l5.48,5.16a.47.47,0,0,1,.15.35ZM17,7.61a1,1,0,0,0-.31-.7L10,.58a2.24,2.24,0,0,0-3,0L.31,6.84A1,1,0,0,0,0,7.55V17.2A1.89,1.89,0,0,0,2,19H5.31a1.92,1.92,0,0,0,2.12-1.66V16.2a1.06,1.06,0,1,1,2.12,0h0v1a1.9,1.9,0,0,0,2,1.8h3.34A1.91,1.91,0,0,0,17,17.36Z" transform="translate(0 0)" fill="#4268e2" fill-rule="evenodd"/></g></g></g></svg>