<svg id="Page-1" xmlns="http://www.w3.org/2000/svg" viewBox="0 0 16.79 16"><title>a</title><g id="Dribbble-Light-Preview"><g id="icons"><path id="edit_text_bar-" data-name="edit text bar-" d="M2.52,11.2a.82.82,0,0,1-.84-.8h0V5.6a.82.82,0,0,1,.84-.8h0a.8.8,0,0,0,.8-.8.79.79,0,0,0-.78-.8H1.68A1.64,1.64,0,0,0,0,4.8H0v6.4a1.64,1.64,0,0,0,1.68,1.6h.84a.8.8,0,0,0,.8-.8h0a.79.79,0,0,0-.78-.8h0m12.6-8H9.24a.8.8,0,0,0-.8.8h0a.79.79,0,0,0,.78.8h5a.82.82,0,0,1,.84.8h0v4.8a.82.82,0,0,1-.84.8h-5a.8.8,0,0,0-.8.8h0a.79.79,0,0,0,.78.8h5.9a1.64,1.64,0,0,0,1.68-1.6h0V4.8a1.64,1.64,0,0,0-1.68-1.6h0M8.4,15.2a.82.82,0,0,1-.84.8H4.2a.8.8,0,0,1-.8-.8h0a.79.79,0,0,1,.78-.8H5V1.6H4.2A.8.8,0,0,1,3.4.8.79.79,0,0,1,4.18,0H7.56a.8.8,0,0,1,.8.8.79.79,0,0,1-.78.8H6.72V14.4h.84a.82.82,0,0,1,.84.8h0" transform="translate(0 0)" fill="#414141" fill-rule="evenodd"/></g></g></svg>