<svg id="Layer_1" data-name="Layer 1" xmlns="http://www.w3.org/2000/svg" viewBox="0 0 11.2 16.02"><title>account_info_white</title><g id="Page-1"><g id="Dribbble-Light-Preview"><g id="icons"><path id="lock_close_plus_round-" data-name="lock close plus round-" d="M8,10.4a.8.8,0,0,1-.8.8H6.4V12a.8.8,0,0,1-1.6,0h0v-.8H4a.8.8,0,0,1,0-1.6h.8v-.8a.8.8,0,0,1,1.6,0h0v.8h.8A.81.81,0,0,1,8,10.4Zm1.6,3.2a.8.8,0,0,1-.8.8H2.4a.8.8,0,0,1-.8-.8h0V7.2a.8.8,0,0,1,.8-.8H8.8a.8.8,0,0,1,.8.8h0ZM4,3.2A1.6,1.6,0,0,1,5.6,1.6h0A1.66,1.66,0,0,1,7.2,3.2V4.8H4ZM9.6,4.8H8.8V3.2A3.27,3.27,0,0,0,5.46,0h0a2.35,2.35,0,0,0-.53,0A3.36,3.36,0,0,0,2.4,3.43V4.8H1.6A1.59,1.59,0,0,0,0,6.38H0v8A1.61,1.61,0,0,0,1.56,16h8a1.6,1.6,0,0,0,1.6-1.6h0v-8A1.6,1.6,0,0,0,9.62,4.8Z" transform="translate(0 0)" fill="#fff" fill-rule="evenodd"/></g></g></g></svg>