<svg id="Layer_1" data-name="Layer 1" xmlns="http://www.w3.org/2000/svg" viewBox="0 0 11.2 16"><title>account_info</title><g id="Page-1"><g id="Dribbble-Light-Preview"><g id="icons"><path id="lock_close_plus_round-" data-name="lock close plus round-" d="M8,10.38a.8.8,0,0,1-.8.8H6.4V12a.8.8,0,1,1-1.6,0v-.8H4a.8.8,0,1,1,0-1.6h.8v-.8a.8.8,0,0,1,1.6,0h0v.8h.8A.8.8,0,0,1,8,10.38Zm1.6,3.2a.8.8,0,0,1-.8.8H2.4a.8.8,0,0,1-.8-.8h0V7.18a.8.8,0,0,1,.8-.8H8.8a.8.8,0,0,1,.8.8h0ZM4,3.18a1.6,1.6,0,0,1,1.6-1.6h0a1.66,1.66,0,0,1,1.6,1.6v1.6H4Zm5.6,1.6H8.8V3.18A3.27,3.27,0,0,0,5.46,0h0A2.24,2.24,0,0,0,4.93,0,3.36,3.36,0,0,0,2.4,3.41V4.78H1.6A1.59,1.59,0,0,0,0,6.36v0H0v8A1.6,1.6,0,0,0,1.6,16h8a1.6,1.6,0,0,0,1.6-1.6h0v-8A1.6,1.6,0,0,0,9.6,4.78Z" transform="translate(0 0.02)" fill="#828282" fill-rule="evenodd"/></g></g></g></svg>