<svg id="Layer_1" data-name="Layer 1" xmlns="http://www.w3.org/2000/svg" viewBox="0 0 16 16"><title>commercial_info</title><g id="Page-1"><g id="Dribbble-Light-Preview"><g id="icons"><path id="shop_center_round-" data-name="shop center round-" d="M14.26,2.3a.81.81,0,0,0-.8-.7h-2a12.45,12.45,0,0,1,.07,4.13,5.74,5.74,0,0,0,2.75-.37,9.52,9.52,0,0,0-.05-3.06Zm-1.46,5A7.22,7.22,0,0,1,10,7.05a7.44,7.44,0,0,1-2.2.3,6.73,6.73,0,0,1-2.09-.3,8.07,8.07,0,0,1-2.54.29V13.6a.8.8,0,0,0,.8.8H7.2V12a.8.8,0,0,1,1.6,0v2.4H12a.8.8,0,0,0,.8-.8h0ZM4.43,5.69a14.09,14.09,0,0,1,.06-4.1h-2a.8.8,0,0,0-.8.72,9.9,9.9,0,0,0,0,3.12,5.58,5.58,0,0,0,2.72.26ZM6,5.44a6.16,6.16,0,0,0,4-.08A11.56,11.56,0,0,0,9.87,1.6H6.1A11.78,11.78,0,0,0,6,5.44Zm9.48,1A2.68,2.68,0,0,1,14.4,7V14.4A1.6,1.6,0,0,1,12.8,16H3.2a1.6,1.6,0,0,1-1.6-1.6h0V7.1A2.32,2.32,0,0,1,.45,6.45C-.23,5.61,0,3,.23,1.37A1.6,1.6,0,0,1,1.81,0H14.15a1.6,1.6,0,0,1,1.59,1.35c.25,1.66.52,4.33-.25,5.1ZM5.6,8a.8.8,0,0,0-.8.8h0v1.6a.8.8,0,0,0,1.6,0V8.8A.8.8,0,0,0,5.6,8Zm5.6.8v1.6a.8.8,0,0,1-1.6,0V8.8a.8.8,0,0,1,1.6,0Z" transform="translate(0 0.01)" fill="#8e8e8e" fill-rule="evenodd"/></g></g></g></svg>