<svg id="Page-1" xmlns="http://www.w3.org/2000/svg" viewBox="0 0 17.05 17.03"><title>effectuee</title><g id="Dribbble-Light-Preview"><g id="icons"><path id="send_round-" data-name="send round-" d="M10,8.62l5-4.95a.43.43,0,0,1,.6,0,.46.46,0,0,1,.13.29V5.12A.86.86,0,0,0,16.6,6h-.19c.47,0,.64-.4.64-.87V1.7A1.7,1.7,0,0,0,15.35,0h-3c-.47,0-1.3.36-1.3.83h0a1.06,1.06,0,0,0,1,.88h1.3a.43.43,0,0,1,.42.44h0a.46.46,0,0,1-.13.29l-4.89,5a.85.85,0,0,0,0,1.2.88.88,0,0,0,1.22,0m7,2.45v4.25c0,.94-.38,1.69-1.32,1.69H2.07C1.14,17,0,16.25,0,15.31V1.71C0,.77,1.14,0,2.07,0H6.33a.85.85,0,0,1,0,1.7H2.93c-.47,0-1.23.39-1.23.86v11c0,.94,1.14,1.69,2.07,1.69H14.83c.47,0,.47-.37.47-.84V11A.85.85,0,1,1,17,11h0" transform="translate(0 0)" fill="#fff" fill-rule="evenodd"/></g></g></svg>