<svg id="Layer_1" data-name="Layer 1" xmlns="http://www.w3.org/2000/svg" viewBox="0 0 18.95 16.97"><title>encours</title><g id="Page-1"><g id="Dribbble-Light-Preview"><g id="icons"><path id="arrow_right_left-" data-name="arrow right left-" d="M4.88,15.43,3.54,14a.47.47,0,0,1,0-.66.46.46,0,0,1,.33-.13H18a1,1,0,0,0,.94-1h0a.94.94,0,0,0-.94-.94H3.9a.47.47,0,0,1-.47-.47h0a.51.51,0,0,1,.13-.33L4.89,9.16a1,1,0,0,0,0-1.33h0a.94.94,0,0,0-1.32,0L.53,11a1.87,1.87,0,0,0,0,2.6l3,3.1a.93.93,0,0,0,1.31,0h0a1,1,0,0,0,0-1.33M14.08.27h0a.92.92,0,0,1,1.3,0h0l3,3.11a1.87,1.87,0,0,1,0,2.6l-3,3.15a.93.93,0,0,1-1.32,0h0A.92.92,0,0,1,14,7.89h0l1.33-1.38a.46.46,0,0,0,0-.65h0A.48.48,0,0,0,15,5.68H1a.94.94,0,0,1-1-.86V4.75H0a1,1,0,0,1,.94-1H15a.45.45,0,0,0,.47-.43h0A.52.52,0,0,0,15.37,3L14,1.59a.92.92,0,0,1,.05-1.3h0" transform="translate(0 0)" fill="#fff" fill-rule="evenodd"/></g></g></g></svg>