<svg id="Layer_1" data-name="Layer 1" xmlns="http://www.w3.org/2000/svg" xmlns:xlink="http://www.w3.org/1999/xlink" viewBox="0 0 87.78 85.04"><defs><clipPath id="clip-path" transform="translate(0 0)"><rect width="87.79" height="85.04" fill="none"/></clipPath></defs><title>Group 32</title><g id="Group_32" data-name="Group 32"><g clip-path="url(#clip-path)"><g id="Group_31" data-name="Group 31"><path id="Path_211" data-name="Path 211" d="M57.16,45a5.78,5.78,0,0,1-5.77-5.76V33.46H43.32a1.16,1.16,0,1,1,0-2.31h9.23A1.15,1.15,0,0,1,53.7,32.3v6.92a3.46,3.46,0,0,0,6.92,0V14.08L47.39,27.16a5.77,5.77,0,0,1-8.15,0l-4-4V34.61a5.77,5.77,0,1,1-11.54.15V9.23a5.78,5.78,0,0,1,5.77-5.77,5.72,5.72,0,0,1,4,1.63l0,0,0,0,9.77,9.77L57.89.34a1.16,1.16,0,0,1,1.64,0,1.15,1.15,0,0,1,0,1.63h0L44.13,17.36a1.15,1.15,0,0,1-1.63,0L32,6.84l-.06,0A3.46,3.46,0,0,0,26,9.23V34.61a3.46,3.46,0,0,0,6.92,0h0V20.37a1.15,1.15,0,0,1,1.16-1.15,1.13,1.13,0,0,1,.81.34l6,6a3.45,3.45,0,0,0,4.89,0h0l15.2-15a1.16,1.16,0,0,1,1.63,0,1.18,1.18,0,0,1,.33.81V39.23A5.78,5.78,0,0,1,57.17,45" transform="translate(0 0)" fill="#1e1edf"/><path id="Path_212" data-name="Path 212" d="M62.93,46.15a1.22,1.22,0,0,1-.46-.09,1.14,1.14,0,0,1-.61-.61,1.3,1.3,0,0,1,0-.91,1.14,1.14,0,0,1,.61-.61,1.2,1.2,0,0,1,.91,0,1.18,1.18,0,0,1,.37.24,1.12,1.12,0,0,1,.24.37,1.2,1.2,0,0,1,0,.91,1.11,1.11,0,0,1-.61.61,1.13,1.13,0,0,1-.45.09m0-.14a1.1,1.1,0,0,0,.4-.08,1,1,0,0,0,.32-.21,1.07,1.07,0,0,0,.21-1.13.94.94,0,0,0-.53-.53,1.1,1.1,0,0,0-.8,0,.94.94,0,0,0-.53.53,1.1,1.1,0,0,0,0,.8,1,1,0,0,0,.21.32.87.87,0,0,0,.32.22,1.15,1.15,0,0,0,.41.08m-.36-.33c-.07,0-.1,0-.1-.11V44.45a.11.11,0,0,1,.09-.13H63a.48.48,0,0,1,.33.1.34.34,0,0,1,.12.28.34.34,0,0,1-.29.37.24.24,0,0,1,.09.06.34.34,0,0,1,.06.12l.11.29a.09.09,0,0,1,0,.1.12.12,0,0,1-.09,0,.11.11,0,0,1-.1-.09l-.14-.35a.16.16,0,0,0-.08-.1.4.4,0,0,0-.15,0h-.2v.45c0,.08,0,.12-.1.12m.1-.74H63c.18,0,.27-.08.27-.23s-.09-.23-.27-.23h-.31Z" transform="translate(0 0)" fill="#1e1edf"/><path id="Path_213" data-name="Path 213" d="M20.25,76A2.24,2.24,0,0,0,18,78.28h0v4.5a2.25,2.25,0,0,0,4.5,0v-4.5A2.25,2.25,0,0,0,20.25,76" transform="translate(0 0)" fill="#1e1edd"/><path id="Path_214" data-name="Path 214" d="M18,67a2.25,2.25,0,0,0,4.5,0V60.28a2.25,2.25,0,0,0-3.84-1.59L11.25,66.1,3.84,58.69A2.25,2.25,0,0,0,0,60.28v18a2.25,2.25,0,0,0,4.5,0V65.72l5.16,5.16a2.25,2.25,0,0,0,3.18,0L18,65.72Z" transform="translate(0 0)" fill="#1e1edd"/><path id="Path_215" data-name="Path 215" d="M49.5,64.79A6.76,6.76,0,0,0,42.75,58h-9a2.26,2.26,0,0,0-2.25,2.26v18a2.25,2.25,0,0,0,4.5,0V71.54h6.75a6.76,6.76,0,0,0,6.75-6.75M42.75,67H36v-4.5h6.75a2.25,2.25,0,0,1,0,4.5" transform="translate(0 0)" fill="#1e1edd"/><path id="Path_216" data-name="Path 216" d="M50.69,77.43a2.42,2.42,0,0,0-.21-.39,1.88,1.88,0,0,0-.28-.34,2.25,2.25,0,0,0-3.18,0h0a1.54,1.54,0,0,0-.28.34,1.47,1.47,0,0,0-.21.39,1.87,1.87,0,0,0-.13.42,2.17,2.17,0,0,0,0,.88,2.25,2.25,0,0,0,.13.42,1.47,1.47,0,0,0,.21.39,1.81,1.81,0,0,0,.28.34,1.88,1.88,0,0,0,.34.28,2.42,2.42,0,0,0,.39.21,2.58,2.58,0,0,0,.42.13,3.13,3.13,0,0,0,.44,0,2.27,2.27,0,0,0,1.59-.66,2.3,2.3,0,0,0,.28-.34,1.79,1.79,0,0,0,.2-.39,2.25,2.25,0,0,0,.13-.42,2.17,2.17,0,0,0,0-.88,1.87,1.87,0,0,0-.13-.42" transform="translate(0 0)" fill="#1e1edd"/><path id="Path_217" data-name="Path 217" d="M59.62,59.28a2.26,2.26,0,0,0-3-1,2.22,2.22,0,0,0-1,1L52.22,66a2.25,2.25,0,0,0,4,2.09.3.3,0,0,1,0-.08l1.36-2.72,2.55,5.09H50.87a2.25,2.25,0,0,0,0,4.5H62.41l2.19,4.38a2.25,2.25,0,1,0,4-2Z" transform="translate(0 0)" fill="#1e1edd"/><path id="Path_218" data-name="Path 218" d="M87.12,58.69a2.25,2.25,0,0,0-3.18,0L76.53,66.1l-7.41-7.41a2.25,2.25,0,0,0-3.18,3.18l8.34,8.34v8.07a2.25,2.25,0,0,0,4.5,0V70.21l8.34-8.34a2.25,2.25,0,0,0,0-3.18" transform="translate(0 0)" fill="#1e1edd"/><path id="Path_219" data-name="Path 219" d="M27,70.41H18a2.25,2.25,0,0,0,0,4.5h9a2.25,2.25,0,0,0,0-4.5" transform="translate(0 0)" fill="#1e1edd"/><path id="Path_220" data-name="Path 220" d="M87,64.79a.73.73,0,0,1-.3-.06.67.67,0,0,1-.24-.16.75.75,0,0,1-.16-.83.74.74,0,0,1,.4-.4.86.86,0,0,1,.59,0,.74.74,0,0,1,.4.4.86.86,0,0,1,0,.59.74.74,0,0,1-.4.4.61.61,0,0,1-.3,0m0-.09a.58.58,0,0,0,.26,0,.6.6,0,0,0,.21-.14.77.77,0,0,0,.14-.21.75.75,0,0,0,0-.26.8.8,0,0,0,0-.26.67.67,0,0,0-1.08-.21.67.67,0,0,0-.13.21.48.48,0,0,0-.05.26.47.47,0,0,0,.05.26.57.57,0,0,0,.13.21.6.6,0,0,0,.21.14.58.58,0,0,0,.26,0m-.23-.21s-.06,0-.07,0v-.75a.08.08,0,0,1,.07-.08h.29a.3.3,0,0,1,.22.06.26.26,0,0,1,.07.19.21.21,0,0,1-.19.23l.06,0,0,.08.07.19a.09.09,0,0,1,0,.07s0,0-.06,0a.06.06,0,0,1-.06,0l-.09-.23a.18.18,0,0,0-.05-.07l-.1,0h-.13v.31a.06.06,0,0,1-.07.07m.07-.49h.2q.18,0,.18-.15c0-.1-.06-.14-.18-.14h-.2Z" transform="translate(0 0)" fill="#1e1edf"/></g></g></g></svg>