<svg xmlns="http://www.w3.org/2000/svg" xmlns:xlink="http://www.w3.org/1999/xlink" width="209.042" height="68.837" viewBox="0 0 209.042 68.837">
  <defs>
    <clipPath id="clip-path">
      <rect id="Rectangle_113" data-name="Rectangle 113" width="209.042" height="68.837" fill="none"/>
    </clipPath>
  </defs>
  <g id="Group_26" data-name="Group 26" transform="translate(0 0)">
    <g id="Group_25" data-name="Group 25" transform="translate(0 -0.001)" clip-path="url(#clip-path)">
      <path id="Path_123" data-name="Path 123" d="M58.51,16.876a1.721,1.721,0,0,0-2.93-1.224L32.905,38.069a5.162,5.162,0,0,1-7.3,0l-8.9-8.9a1.72,1.72,0,0,0-2.937,1.216V51.628a5.163,5.163,0,0,1-10.327,0V13.767a5.158,5.158,0,0,1,8.811-3.647c.028.028.057.054.086.08l15.7,15.7a1.72,1.72,0,0,0,2.434,0L53.434,2.938A1.721,1.721,0,0,0,51,.5L29.255,22.249,14.689,7.684c-.019-.019-.041-.04-.063-.06l-.036-.032A8.6,8.6,0,0,0,0,13.768v37.86a8.6,8.6,0,1,0,17.209,0V34.54L23.171,40.5a8.612,8.612,0,0,0,12.161.007L55.068,21V58.511a5.163,5.163,0,1,1-10.325,0V48.185a1.722,1.722,0,0,0-1.721-1.721H29.255a1.721,1.721,0,0,0,0,3.442H41.3v8.6a8.6,8.6,0,0,0,17.209,0Z" transform="translate(0 0.001)" fill="#fff"/>
      <path id="Path_124" data-name="Path 124" d="M79.115,89.328a.543.543,0,0,0-.174-.424.719.719,0,0,0-.5-.156H77.82a.168.168,0,0,0-.191.19v1.68c0,.111.053.167.157.167s.157-.056.157-.167v-.681h.295a.521.521,0,0,1,.212.04.26.26,0,0,1,.13.16l.2.523a.149.149,0,0,0,.147.124.168.168,0,0,0,.133-.055.144.144,0,0,0,.01-.154l-.167-.438a.561.561,0,0,0-.1-.177.319.319,0,0,0-.131-.09.5.5,0,0,0,.439-.543m-.71.352h-.462V89h.462q.4,0,.4.337t-.4.338" transform="translate(-19.803 -22.639)" fill="#fff"/>
      <path id="Path_125" data-name="Path 125" d="M79.184,88.284a1.684,1.684,0,0,0-.545-.364,1.826,1.826,0,0,0-1.359,0,1.674,1.674,0,0,0-.912.91,1.82,1.82,0,0,0,0,1.356,1.709,1.709,0,0,0,.364.547,1.653,1.653,0,0,0,.548.367,1.826,1.826,0,0,0,1.359,0,1.666,1.666,0,0,0,.545-.367,1.707,1.707,0,0,0,.364-.547,1.82,1.82,0,0,0,0-1.356,1.674,1.674,0,0,0-.364-.545m.162,1.821a1.522,1.522,0,0,1-.317.481,1.425,1.425,0,0,1-.476.321,1.525,1.525,0,0,1-.592.114,1.543,1.543,0,0,1-.6-.114,1.4,1.4,0,0,1-.478-.321,1.512,1.512,0,0,1-.317-.481,1.623,1.623,0,0,1,0-1.195,1.474,1.474,0,0,1,.317-.478,1.421,1.421,0,0,1,.478-.319,1.53,1.53,0,0,1,.6-.115,1.512,1.512,0,0,1,.592.115,1.441,1.441,0,0,1,.476.319,1.484,1.484,0,0,1,.317.478,1.623,1.623,0,0,1,0,1.195" transform="translate(-19.448 -22.394)" fill="#fff"/>
      <path id="Path_126" data-name="Path 126" d="M144.254,59.727a3.357,3.357,0,0,0-3.357,3.357V69.8a3.357,3.357,0,1,0,6.713,0V63.084a3.357,3.357,0,0,0-3.357-3.357" transform="translate(-35.942 -15.236)" fill="#fff"/>
      <path id="Path_127" data-name="Path 127" d="M131.7,37.1a3.357,3.357,0,0,0,6.714,0V27.033a3.357,3.357,0,0,0-5.731-2.374L121.63,35.713,110.577,24.659a3.357,3.357,0,0,0-5.731,2.374V53.888a3.357,3.357,0,1,0,6.714,0V35.137l7.7,7.7a3.358,3.358,0,0,0,4.748,0l7.7-7.7Z" transform="translate(-26.746 -6.039)" fill="#fff"/>
      <path id="Path_128" data-name="Path 128" d="M194.764,33.747a10.083,10.083,0,0,0-10.071-10.07H171.266a3.356,3.356,0,0,0-3.357,3.357V53.888a3.357,3.357,0,1,0,6.714,0V43.818h10.07a10.083,10.083,0,0,0,10.071-10.07M184.693,37.1h-10.07V30.39h10.07a3.357,3.357,0,0,1,0,6.714" transform="translate(-42.833 -6.04)" fill="#fff"/>
      <path id="Path_129" data-name="Path 129" d="M204.128,61.8a3.069,3.069,0,0,0-.31-.582,2.958,2.958,0,0,0-.418-.507,3.349,3.349,0,0,0-4.744,0,3.024,3.024,0,0,0-.417.507,3.374,3.374,0,0,0-.5,1.208,3.249,3.249,0,0,0,0,1.313,3.374,3.374,0,0,0,.5,1.208,3.389,3.389,0,0,0,.925.925,3.126,3.126,0,0,0,.581.309,3.412,3.412,0,0,0,.627.194,3.532,3.532,0,0,0,.657.063,3.364,3.364,0,0,0,2.371-.985,2.958,2.958,0,0,0,.418-.507,3.092,3.092,0,0,0,.31-.582,3.389,3.389,0,0,0,.19-.626,3.214,3.214,0,0,0,0-1.313,3.389,3.389,0,0,0-.19-.626" transform="translate(-50.425 -15.236)" fill="#fff"/>
      <path id="Path_130" data-name="Path 130" d="M218.614,25.533a3.357,3.357,0,0,0-6.005,0L207.573,35.6a3.357,3.357,0,1,0,6,3l2.034-4.066,3.8,7.6H205.556a3.357,3.357,0,1,0,0,6.714h17.211l3.269,6.537a3.357,3.357,0,0,0,6-3Z" transform="translate(-51.58 -6.04)" fill="#fff"/>
      <path id="Path_131" data-name="Path 131" d="M268.151,24.659a3.357,3.357,0,0,0-4.747,0L252.35,35.713,241.3,24.659a3.357,3.357,0,0,0-4.747,4.747l12.444,12.444V53.888a3.357,3.357,0,0,0,6.714,0V41.851l12.444-12.444a3.357,3.357,0,0,0,0-4.747" transform="translate(-60.092 -6.039)" fill="#fff"/>
      <path id="Path_132" data-name="Path 132" d="M153.2,48.461H139.741a3.357,3.357,0,0,0,0,6.714H153.2a3.357,3.357,0,0,0,0-6.714" transform="translate(-34.791 -12.362)" fill="#fff"/>
      <path id="Path_133" data-name="Path 133" d="M279.779,34.868a1.1,1.1,0,0,0-.591-.591,1.193,1.193,0,0,0-.884,0,1.084,1.084,0,0,0-.355.237,1.1,1.1,0,0,0-.237.354,1.187,1.187,0,0,0,0,.882,1.115,1.115,0,0,0,.237.356,1.065,1.065,0,0,0,.355.238,1.193,1.193,0,0,0,.884,0,1.067,1.067,0,0,0,.354-.238,1.1,1.1,0,0,0,.238-.356,1.187,1.187,0,0,0,0-.882m-.132.83a.984.984,0,0,1-.206.312.934.934,0,0,1-.31.209.983.983,0,0,1-.385.074,1,1,0,0,1-.387-.074.922.922,0,0,1-.311-.209.988.988,0,0,1-.206-.312,1.06,1.06,0,0,1,0-.777.973.973,0,0,1,.206-.311.93.93,0,0,1,.311-.208,1,1,0,0,1,.387-.074.983.983,0,0,1,.385.074.941.941,0,0,1,.31.208.969.969,0,0,1,.206.311,1.05,1.05,0,0,1,0,.777" transform="translate(-70.821 -8.722)" fill="#fff"/>
      <path id="Path_134" data-name="Path 134" d="M279.5,35.192a.353.353,0,0,0-.113-.275.464.464,0,0,0-.323-.1h-.406a.109.109,0,0,0-.124.124v1.092c0,.073.034.109.1.109s.1-.036.1-.109v-.442h.191a.325.325,0,0,1,.138.026.169.169,0,0,1,.085.1l.13.34a.1.1,0,0,0,.1.08.11.11,0,0,0,.086-.035.1.1,0,0,0,.006-.1l-.108-.285a.372.372,0,0,0-.063-.115.2.2,0,0,0-.086-.058.328.328,0,0,0,.285-.354m-.462.229h-.3v-.439h.3q.26,0,.261.22t-.261.22" transform="translate(-71.052 -8.881)" fill="#fff"/>
    </g>
  </g>
</svg>
