<svg id="Page-1" xmlns="http://www.w3.org/2000/svg" viewBox="0 0 18 16.2"><title>mescartes</title><g id="Dribbble-Light-Preview"><g id="icons"><path id="money_round-" data-name="money round-" d="M1.8,2.7V1.8A1.81,1.81,0,0,1,3.6,0H14.4a1.81,1.81,0,0,1,1.8,1.8h0v.9a.9.9,0,1,1-1.8,0,.9.9,0,0,0-.9-.9h-9a.9.9,0,0,0-.9.9.9.9,0,0,1-1.8,0Zm9,8.1A1.8,1.8,0,1,1,9,9a1.81,1.81,0,0,1,1.8,1.8Zm5.4-2.11L14.71,7.2C16.18,7.2,16.2,7.54,16.2,8.69ZM14.71,14.4l1.49-1.49C16.2,14.37,15.86,14.4,14.71,14.4Zm-8.87,0-3.6-3.6,3.6-3.6h6.32l3.6,3.6-3.6,3.6Zm-4-1.49L3.29,14.4C1.83,14.4,1.8,14.06,1.8,12.91ZM3.29,7.2,1.8,8.69C1.8,7.23,2.15,7.2,3.29,7.2ZM16.2,5.4H1.8A1.81,1.81,0,0,0,0,7.2H0v7.2a1.81,1.81,0,0,0,1.8,1.8H16.2A1.81,1.81,0,0,0,18,14.4h0V7.2a1.81,1.81,0,0,0-1.8-1.8Z" transform="translate(0)" fill="#2e2b2b" fill-rule="evenodd"/></g></g></svg>