<svg id="Group_39" data-name="Group 39" xmlns="http://www.w3.org/2000/svg" xmlns:xlink="http://www.w3.org/1999/xlink" viewBox="0 0 65.98 58.96"><defs><clipPath id="clip-path" transform="translate(-0.05 0)"><rect x="0.02" y="0.02" width="66" height="58.94" fill="none"/></clipPath></defs><title>ok</title><g clip-path="url(#clip-path)"><g id="Group_15" data-name="Group 15"><path id="Path_23" data-name="Path 23" d="M52.89,25.67a23.71,23.71,0,1,1-46.65-.9A23.4,23.4,0,0,1,24.52,6.29a23.75,23.75,0,0,1,21.92,6.63h0l4-4.14h0A29.53,29.53,0,0,0,23.64.58a29.15,29.15,0,0,0-23,23A29.53,29.53,0,0,0,35.82,58.3,29.07,29.07,0,0,0,58.38,35.46a30,30,0,0,0-.73-14.69m0,0-4.75,4.9h0" transform="translate(-0.05 0)" fill="#10a132"/><path id="Path_24" data-name="Path 24" d="M57.73,4,29.42,33.26l-10.1-9.71a4.74,4.74,0,0,0-6.57,6.83l10.07,9.69,4.83,4.68a2.92,2.92,0,0,0,4.13-.07h0L36.35,40,64.66,10.76A4.83,4.83,0,1,0,57.73,4h0" transform="translate(-0.05 0)" fill="#10a132"/></g></g></svg>