<svg id="Layer_1" data-name="Layer 1" xmlns="http://www.w3.org/2000/svg" viewBox="0 0 456.38 500.45"><title>password</title><path id="Path_245" data-name="Path 245" d="M906.36,172,740.61,202.22a15.8,15.8,0,0,0-12.81,16.36l11,186A276.42,276.42,0,0,0,884.66,631.89l64,34.15a15.16,15.16,0,0,0,14.58,0l64-34.15a275.64,275.64,0,0,0,145.83-227.28l11-186a15.8,15.8,0,0,0-12.8-16.36l-165-30.23a277.48,277.48,0,0,0-99.95,0" transform="translate(-727.79 -167.45)" fill="#4976ff"/><path id="Path_246" data-name="Path 246" d="M955.8,651.3a1.29,1.29,0,0,1-1-.35l-63-33.62A259.35,259.35,0,0,1,754.75,404L743.89,220.83c0-1.4.7-2.45,2.11-2.45l163.22-30.13a262.4,262.4,0,0,1,93.52,0L1166,218.38a3,3,0,0,1,2.1,2.45L1157.2,404a258.57,258.57,0,0,1-137,213.31L957.2,651c-.35,0-.7.35-1.4.35" transform="translate(-727.79 -167.45)" fill="#95b0ff"/><path id="Path_247" data-name="Path 247" d="M1049.56,423.61H862.4a51.28,51.28,0,0,1-51.22-51.22v-1a51.28,51.28,0,0,1,51.22-51.22h187.16a51.29,51.29,0,0,1,51.22,51.22v1c0,27.91-23,50.9-51.22,51.22" transform="translate(-727.79 -167.45)" fill="#7598ff"/><path id="Path_248" data-name="Path 248" d="M1047.5,412.89h-183a50.16,50.16,0,0,1-50.1-50.09v-1a50.16,50.16,0,0,1,50.1-50.09h183a50.16,50.16,0,0,1,50.09,50.09v1a50.16,50.16,0,0,1-50.09,50.09h0" transform="translate(-727.79 -167.45)" fill="#fff"/><path id="Path_249" data-name="Path 249" d="M890.19,368.17c.39.39.78.78.78,1.17-.39,1.17-.78,2-1.17,3.12a7,7,0,0,1-1.95,2.73,1.19,1.19,0,0,1-1.56,0L875,367l1.56,14c0,.39,0,1.17-.78,1.17a18.93,18.93,0,0,1-6.63,0c-.39,0-.78-.78-.78-1.17l1.56-14-11.32,8.19a1.19,1.19,0,0,1-1.56,0,7,7,0,0,1-1.95-2.73,4.43,4.43,0,0,1-1.17-3.12c0-.39.39-1.17.78-1.17l12.88-5.85-13.66-5.86c-.39-.39-.78-.78-.78-1.17.39-1.17.78-2,1.17-3.12a7,7,0,0,1,2-2.73,1.19,1.19,0,0,1,1.56,0l11.32,8.19-1.56-14c0-.39,0-1.17.78-1.17a18.93,18.93,0,0,1,6.63,0c.39.39.78.78.78,1.17l-1.56,14,11.31-8.19a1.19,1.19,0,0,1,1.56,0,7,7,0,0,1,1.95,2.73,4.43,4.43,0,0,1,1.17,3.12c0,.39-.39,1.17-.78,1.17l-12.87,5.86Z" transform="translate(-727.79 -167.45)" fill="#4976ff"/><path id="Path_250" data-name="Path 250" d="M944.81,368.17c.39.39.78.78.78,1.17-.39,1.17-.78,2-1.17,3.12a7,7,0,0,1-1.95,2.73,1.19,1.19,0,0,1-1.56,0L929.6,367l1.56,14c0,.39,0,1.17-.78,1.17a19,19,0,0,1-6.64,0c-.39,0-.78-.78-.78-1.17l1.57-14-11.32,8.19a1.19,1.19,0,0,1-1.56,0,7,7,0,0,1-1.95-2.73,4.43,4.43,0,0,1-1.17-3.12c0-.39.39-1.17.78-1.17l12.87-5.85-13.26-5.86c-.39-.39-.78-.78-.78-1.17.39-1.17.78-2,1.17-3.12a7,7,0,0,1,2-2.73,1.19,1.19,0,0,1,1.56,0l11.32,8.19-1.57-14c0-.39,0-1.17.78-1.17a19,19,0,0,1,6.64,0c.39.39.78.78.78,1.17l-1.56,14,11.31-8.19a1.19,1.19,0,0,1,1.56,0,7,7,0,0,1,1.95,2.73,4.43,4.43,0,0,1,1.17,3.12c0,.39-.39,1.17-.78,1.17l-12.87,5.86Z" transform="translate(-727.79 -167.45)" fill="#4976ff"/><path id="Path_251" data-name="Path 251" d="M999.82,368.17c.39.39.78.78.78,1.17-.39,1.17-.78,2-1.17,3.12a7,7,0,0,1-1.95,2.73,1.19,1.19,0,0,1-1.56,0l-11.71-8.58,1.56,14c0,.39,0,1.17-.78,1.17a18.93,18.93,0,0,1-6.63,0c-.39,0-.78-.78-.78-1.17l1.56-14-11.31,8.19a1.19,1.19,0,0,1-1.56,0,7,7,0,0,1-1.95-2.73,4.43,4.43,0,0,1-1.17-3.12c0-.39.39-1.17.78-1.17l12.87-5.85-12.87-5.47c-.39-.39-.78-.78-.78-1.17.39-1.17.78-2,1.17-3.12a7,7,0,0,1,1.95-2.73,1.19,1.19,0,0,1,1.56,0l11.31,8.19-1.56-14c0-.39,0-1.17.78-1.17a18.93,18.93,0,0,1,6.63,0c.39.39.78.78.78,1.17L984.21,358l11.32-8.19a1.19,1.19,0,0,1,1.56,0,7,7,0,0,1,1.95,2.73,4.43,4.43,0,0,1,1.17,3.12c0,.39-.39,1.17-.78,1.17l-12.88,5.86Z" transform="translate(-727.79 -167.45)" fill="#4976ff"/><path id="Path_252" data-name="Path 252" d="M1054.44,368.17c.39.39.78.78.78,1.17-.39,1.17-.78,2-1.17,3.12a7,7,0,0,1-2,2.73,1.2,1.2,0,0,1-1.57,0L1039.22,367l1.56,14c0,.39,0,1.17-.78,1.17a18.93,18.93,0,0,1-6.63,0c-.39,0-.78-.78-.78-1.17l1.56-14-11.31,8.19a1.19,1.19,0,0,1-1.56,0,7.12,7.12,0,0,1-2-2.73,4.43,4.43,0,0,1-1.17-3.12c0-.39.39-1.17.78-1.17l12.88-5.85-13.27-5.86c-.39-.39-.78-.78-.78-1.17.39-1.17.78-2,1.17-3.12a7,7,0,0,1,2-2.73,1.19,1.19,0,0,1,1.56,0l11.31,8.19-1.56-14c0-.39,0-1.17.78-1.17a18.93,18.93,0,0,1,6.63,0c.39.39.78.78.78,1.17l-1.56,14,11.31-8.19a1.2,1.2,0,0,1,1.57,0,7,7,0,0,1,2,2.73,4.43,4.43,0,0,1,1.17,3.12c0,.39-.39,1.17-.78,1.17l-12.88,5.86Z" transform="translate(-727.79 -167.45)" fill="#4976ff"/></svg>