<svg id="Page-1" xmlns="http://www.w3.org/2000/svg" viewBox="0 0 20 16"><title>payer</title><g id="Dribbble-Light-Preview"><g id="icons"><path id="focus_horizontal_round_round-" data-name="focus horizontal round round-" d="M18,14V12a1,1,0,0,0-1-1h0a1,1,0,0,0-1,1v1a1,1,0,0,1-1,1H14a1,1,0,0,0,0,2h2a2,2,0,0,0,2-2M16,0H14a1,1,0,0,0,0,2h1a1,1,0,0,1,1,1V4a1,1,0,0,0,1,1h0a1,1,0,0,0,1-1V2a2,2,0,0,0-2-2M4,16H6a1,1,0,0,0,0-2H5a1,1,0,0,1-1-1V12a1,1,0,0,0-1-1H3a1,1,0,0,0-1,1v2a2,2,0,0,0,2,2M3,5H3A1,1,0,0,0,4,4V3A1,1,0,0,1,5,2H6A1,1,0,0,0,6,0H4A2,2,0,0,0,2,2V4A1,1,0,0,0,3,5M0,8H0A1,1,0,0,1,1,7H19a1,1,0,0,1,0,2H1A1,1,0,0,1,0,8" fill="#fff" fill-rule="evenodd"/></g></g></svg>