<svg id="Layer_1" data-name="Layer 1" xmlns="http://www.w3.org/2000/svg" viewBox="0 0 11.59 9.27"><title>profile_bottom_left</title><g id="Page-1"><g id="Dribbble-Light-Preview"><g id="icons"><path id="focus_vertical_round-" data-name="focus vertical round-" d="M1.16,1.16V2.32a.58.58,0,0,0,1.16,0V1.74a.58.58,0,0,1,.58-.58h.58A.58.58,0,0,0,3.48,0H2.32A1.16,1.16,0,0,0,1.16,1.16ZM2.32,9.27H3.48a.58.58,0,0,0,0-1.16H2.9a.58.58,0,0,1-.58-.58V7A.58.58,0,1,0,1.16,7h0V8.11A1.16,1.16,0,0,0,2.32,9.27ZM9.27,0H8.11a.58.58,0,0,0,0,1.16h.58a.58.58,0,0,1,.58.58v.58a.58.58,0,0,0,1.16,0V1.16A1.16,1.16,0,0,0,9.27,0Zm.58,6.37h0A.58.58,0,0,0,9.27,7v.58a.58.58,0,0,1-.58.58H8.11a.58.58,0,0,0,0,1.16H9.27a1.16,1.16,0,0,0,1.16-1.16V7A.58.58,0,0,0,9.85,6.37ZM.58,5.21A.58.58,0,0,1,0,4.63a.57.57,0,0,1,.58-.57H11a.57.57,0,0,1,.58.57.58.58,0,0,1-.58.58Z" transform="translate(0)" fill="#fff" fill-rule="evenodd"/></g></g></g></svg>