<svg xmlns="http://www.w3.org/2000/svg" width="14.545" height="16" viewBox="0 0 14.545 16">
  <g id="Page-1" transform="translate(0 0.001)">
    <g id="Dribbble-Light-Preview" transform="translate(0 -0.001)">
      <g id="icons" transform="translate(0 0)">
        <path id="profile_plus_round-_1343_" data-name="profile_plus_round-[#1343]" d="M54.242,2003.363a2.97,2.97,0,1,0-2.969,2.909,2.941,2.941,0,0,0,2.969-2.909m2.809,10.181H55.726a.727.727,0,1,1,0-1.454h.318a.725.725,0,0,0,.7-.974,5.7,5.7,0,0,0-5.471-3.389,5.7,5.7,0,0,0-5.471,3.389.725.725,0,0,0,.7.974h.318a.727.727,0,1,1,0,1.454H45.494a1.452,1.452,0,0,1-1.462-1.716,6.935,6.935,0,0,1,4.45-5.069,4.316,4.316,0,0,1-1.664-3.4,4.462,4.462,0,0,1,8.856-.676,4.306,4.306,0,0,1-1.612,4.073,6.935,6.935,0,0,1,4.45,5.069,1.452,1.452,0,0,1-1.462,1.716m-3.551-.727a.736.736,0,0,1-.742.727h-.591c0,.727.077,1.454-.742,1.454a.736.736,0,0,1-.742-.727v-.727h-.894a.727.727,0,1,1,0-1.454h.894v-.727a.742.742,0,0,1,1.485,0v.727h.591a.736.736,0,0,1,.742.727" transform="translate(-44 -1998.999)" fill="#fff" fill-rule="evenodd"/>
      </g>
    </g>
  </g>
</svg>
