<svg id="Layer_1" data-name="Layer 1" xmlns="http://www.w3.org/2000/svg" viewBox="0 0 231 231"><title>qrcode</title><rect width="231" height="231" fill="#fff"/><rect x="70" y="14" width="7" height="7"/><rect x="77" y="14" width="7" height="7"/><rect x="84" y="14" width="7" height="7"/><rect x="105" y="14" width="7" height="7"/><rect x="112" y="14" width="7" height="7"/><rect x="119" y="14" width="7" height="7"/><rect x="140" y="14" width="7" height="7"/><rect x="70" y="21" width="7" height="7"/><rect x="77" y="21" width="7" height="7"/><rect x="84" y="21" width="7" height="7"/><rect x="91" y="21" width="7" height="7"/><rect x="98" y="21" width="7" height="7"/><rect x="105" y="21" width="7" height="7"/><rect x="112" y="21" width="7" height="7"/><rect x="119" y="21" width="7" height="7"/><rect x="133" y="21" width="7" height="7"/><rect x="140" y="21" width="7" height="7"/><rect x="147" y="21" width="7" height="7"/><rect x="154" y="21" width="7" height="7"/><rect x="70" y="28" width="7" height="7"/><rect x="77" y="28" width="7" height="7"/><rect x="84" y="28" width="7" height="7"/><rect x="91" y="28" width="7" height="7"/><rect x="105" y="28" width="7" height="7"/><rect x="112" y="28" width="7" height="7"/><rect x="154" y="28" width="7" height="7"/><rect x="77" y="35" width="7" height="7"/><rect x="84" y="35" width="7" height="7"/><rect x="91" y="35" width="7" height="7"/><rect x="98" y="35" width="7" height="7"/><rect x="112" y="35" width="7" height="7"/><rect x="119" y="35" width="7" height="7"/><rect x="133" y="35" width="7" height="7"/><rect x="147" y="35" width="7" height="7"/><rect x="154" y="35" width="7" height="7"/><rect x="70" y="42" width="7" height="7"/><rect x="77" y="42" width="7" height="7"/><rect x="84" y="42" width="7" height="7"/><rect x="98" y="42" width="7" height="7"/><rect x="105" y="42" width="7" height="7"/><rect x="119" y="42" width="7" height="7"/><rect x="133" y="42" width="7" height="7"/><rect x="140" y="42" width="7" height="7"/><rect x="147" y="42" width="7" height="7"/><rect x="77" y="49" width="7" height="7"/><rect x="105" y="49" width="7" height="7"/><rect x="112" y="49" width="7" height="7"/><rect x="133" y="49" width="7" height="7"/><rect x="154" y="49" width="7" height="7"/><rect x="70" y="56" width="7" height="7"/><rect x="84" y="56" width="7" height="7"/><rect x="98" y="56" width="7" height="7"/><rect x="112" y="56" width="7" height="7"/><rect x="126" y="56" width="7" height="7"/><rect x="140" y="56" width="7" height="7"/><rect x="154" y="56" width="7" height="7"/><rect x="77" y="63" width="7" height="7"/><rect x="98" y="63" width="7" height="7"/><rect x="112" y="63" width="7" height="7"/><rect x="14" y="70" width="7" height="7"/><rect x="35" y="70" width="7" height="7"/><rect x="42" y="70" width="7" height="7"/><rect x="49" y="70" width="7" height="7"/><rect x="56" y="70" width="7" height="7"/><rect x="63" y="70" width="7" height="7"/><rect x="70" y="70" width="7" height="7"/><rect x="77" y="70" width="7" height="7"/><rect x="98" y="70" width="7" height="7"/><rect x="105" y="70" width="7" height="7"/><rect x="112" y="70" width="7" height="7"/><rect x="119" y="70" width="7" height="7"/><rect x="126" y="70" width="7" height="7"/><rect x="133" y="70" width="7" height="7"/><rect x="161" y="70" width="7" height="7"/><rect x="182" y="70" width="7" height="7"/><rect x="196" y="70" width="7" height="7"/><rect x="203" y="70" width="7" height="7"/><rect x="210" y="70" width="7" height="7"/><rect x="14" y="77" width="7" height="7"/><rect x="28" y="77" width="7" height="7"/><rect x="70" y="77" width="7" height="7"/><rect x="98" y="77" width="7" height="7"/><rect x="112" y="77" width="7" height="7"/><rect x="133" y="77" width="7" height="7"/><rect x="147" y="77" width="7" height="7"/><rect x="161" y="77" width="7" height="7"/><rect x="175" y="77" width="7" height="7"/><rect x="182" y="77" width="7" height="7"/><rect x="196" y="77" width="7" height="7"/><rect x="203" y="77" width="7" height="7"/><rect x="21" y="84" width="7" height="7"/><rect x="28" y="84" width="7" height="7"/><rect x="42" y="84" width="7" height="7"/><rect x="49" y="84" width="7" height="7"/><rect x="56" y="84" width="7" height="7"/><rect x="77" y="84" width="7" height="7"/><rect x="84" y="84" width="7" height="7"/><rect x="112" y="84" width="7" height="7"/><rect x="133" y="84" width="7" height="7"/><rect x="140" y="84" width="7" height="7"/><rect x="161" y="84" width="7" height="7"/><rect x="175" y="84" width="7" height="7"/><rect x="196" y="84" width="7" height="7"/><rect x="35" y="91" width="7" height="7"/><rect x="42" y="91" width="7" height="7"/><rect x="70" y="91" width="7" height="7"/><rect x="77" y="91" width="7" height="7"/><rect x="84" y="91" width="7" height="7"/><rect x="112" y="91" width="7" height="7"/><rect x="119" y="91" width="7" height="7"/><rect x="133" y="91" width="7" height="7"/><rect x="154" y="91" width="7" height="7"/><rect x="161" y="91" width="7" height="7"/><rect x="168" y="91" width="7" height="7"/><rect x="189" y="91" width="7" height="7"/><rect x="210" y="91" width="7" height="7"/><rect x="14" y="98" width="7" height="7"/><rect x="21" y="98" width="7" height="7"/><rect x="28" y="98" width="7" height="7"/><rect x="35" y="98" width="7" height="7"/><rect x="56" y="98" width="7" height="7"/><rect x="84" y="98" width="7" height="7"/><rect x="98" y="98" width="7" height="7"/><rect x="105" y="98" width="7" height="7"/><rect x="112" y="98" width="7" height="7"/><rect x="140" y="98" width="7" height="7"/><rect x="154" y="98" width="7" height="7"/><rect x="168" y="98" width="7" height="7"/><rect x="175" y="98" width="7" height="7"/><rect x="210" y="98" width="7" height="7"/><rect x="28" y="105" width="7" height="7"/><rect x="91" y="105" width="7" height="7"/><rect x="98" y="105" width="7" height="7"/><rect x="133" y="105" width="7" height="7"/><rect x="140" y="105" width="7" height="7"/><rect x="161" y="105" width="7" height="7"/><rect x="168" y="105" width="7" height="7"/><rect x="182" y="105" width="7" height="7"/><rect x="189" y="105" width="7" height="7"/><rect x="196" y="105" width="7" height="7"/><rect x="203" y="105" width="7" height="7"/><rect x="210" y="105" width="7" height="7"/><rect x="21" y="112" width="7" height="7"/><rect x="49" y="112" width="7" height="7"/><rect x="56" y="112" width="7" height="7"/><rect x="63" y="112" width="7" height="7"/><rect x="70" y="112" width="7" height="7"/><rect x="84" y="112" width="7" height="7"/><rect x="112" y="112" width="7" height="7"/><rect x="119" y="112" width="7" height="7"/><rect x="133" y="112" width="7" height="7"/><rect x="147" y="112" width="7" height="7"/><rect x="154" y="112" width="7" height="7"/><rect x="161" y="112" width="7" height="7"/><rect x="168" y="112" width="7" height="7"/><rect x="175" y="112" width="7" height="7"/><rect x="196" y="112" width="7" height="7"/><rect x="210" y="112" width="7" height="7"/><rect x="14" y="119" width="7" height="7"/><rect x="21" y="119" width="7" height="7"/><rect x="42" y="119" width="7" height="7"/><rect x="63" y="119" width="7" height="7"/><rect x="77" y="119" width="7" height="7"/><rect x="84" y="119" width="7" height="7"/><rect x="105" y="119" width="7" height="7"/><rect x="112" y="119" width="7" height="7"/><rect x="126" y="119" width="7" height="7"/><rect x="140" y="119" width="7" height="7"/><rect x="175" y="119" width="7" height="7"/><rect x="182" y="119" width="7" height="7"/><rect x="196" y="119" width="7" height="7"/><rect x="210" y="119" width="7" height="7"/><rect x="42" y="126" width="7" height="7"/><rect x="56" y="126" width="7" height="7"/><rect x="98" y="126" width="7" height="7"/><rect x="119" y="126" width="7" height="7"/><rect x="147" y="126" width="7" height="7"/><rect x="154" y="126" width="7" height="7"/><rect x="189" y="126" width="7" height="7"/><rect x="14" y="133" width="7" height="7"/><rect x="35" y="133" width="7" height="7"/><rect x="70" y="133" width="7" height="7"/><rect x="77" y="133" width="7" height="7"/><rect x="133" y="133" width="7" height="7"/><rect x="140" y="133" width="7" height="7"/><rect x="147" y="133" width="7" height="7"/><rect x="182" y="133" width="7" height="7"/><rect x="196" y="133" width="7" height="7"/><rect x="203" y="133" width="7" height="7"/><rect x="14" y="140" width="7" height="7"/><rect x="21" y="140" width="7" height="7"/><rect x="28" y="140" width="7" height="7"/><rect x="56" y="140" width="7" height="7"/><rect x="63" y="140" width="7" height="7"/><rect x="77" y="140" width="7" height="7"/><rect x="84" y="140" width="7" height="7"/><rect x="105" y="140" width="7" height="7"/><rect x="112" y="140" width="7" height="7"/><rect x="126" y="140" width="7" height="7"/><rect x="140" y="140" width="7" height="7"/><rect x="147" y="140" width="7" height="7"/><rect x="161" y="140" width="7" height="7"/><rect x="168" y="140" width="7" height="7"/><rect x="189" y="140" width="7" height="7"/><rect x="210" y="140" width="7" height="7"/><rect x="14" y="147" width="7" height="7"/><rect x="21" y="147" width="7" height="7"/><rect x="42" y="147" width="7" height="7"/><rect x="49" y="147" width="7" height="7"/><rect x="63" y="147" width="7" height="7"/><rect x="70" y="147" width="7" height="7"/><rect x="77" y="147" width="7" height="7"/><rect x="84" y="147" width="7" height="7"/><rect x="91" y="147" width="7" height="7"/><rect x="105" y="147" width="7" height="7"/><rect x="119" y="147" width="7" height="7"/><rect x="126" y="147" width="7" height="7"/><rect x="147" y="147" width="7" height="7"/><rect x="161" y="147" width="7" height="7"/><rect x="168" y="147" width="7" height="7"/><rect x="175" y="147" width="7" height="7"/><rect x="182" y="147" width="7" height="7"/><rect x="189" y="147" width="7" height="7"/><rect x="196" y="147" width="7" height="7"/><rect x="14" y="154" width="7" height="7"/><rect x="21" y="154" width="7" height="7"/><rect x="28" y="154" width="7" height="7"/><rect x="49" y="154" width="7" height="7"/><rect x="56" y="154" width="7" height="7"/><rect x="77" y="154" width="7" height="7"/><rect x="84" y="154" width="7" height="7"/><rect x="98" y="154" width="7" height="7"/><rect x="105" y="154" width="7" height="7"/><rect x="133" y="154" width="7" height="7"/><rect x="147" y="154" width="7" height="7"/><rect x="154" y="154" width="7" height="7"/><rect x="161" y="154" width="7" height="7"/><rect x="168" y="154" width="7" height="7"/><rect x="175" y="154" width="7" height="7"/><rect x="182" y="154" width="7" height="7"/><rect x="189" y="154" width="7" height="7"/><rect x="196" y="154" width="7" height="7"/><rect x="203" y="154" width="7" height="7"/><rect x="70" y="161" width="7" height="7"/><rect x="91" y="161" width="7" height="7"/><rect x="105" y="161" width="7" height="7"/><rect x="126" y="161" width="7" height="7"/><rect x="133" y="161" width="7" height="7"/><rect x="140" y="161" width="7" height="7"/><rect x="154" y="161" width="7" height="7"/><rect x="182" y="161" width="7" height="7"/><rect x="189" y="161" width="7" height="7"/><rect x="70" y="168" width="7" height="7"/><rect x="105" y="168" width="7" height="7"/><rect x="119" y="168" width="7" height="7"/><rect x="126" y="168" width="7" height="7"/><rect x="147" y="168" width="7" height="7"/><rect x="154" y="168" width="7" height="7"/><rect x="168" y="168" width="7" height="7"/><rect x="182" y="168" width="7" height="7"/><rect x="189" y="168" width="7" height="7"/><rect x="70" y="175" width="7" height="7"/><rect x="77" y="175" width="7" height="7"/><rect x="84" y="175" width="7" height="7"/><rect x="98" y="175" width="7" height="7"/><rect x="105" y="175" width="7" height="7"/><rect x="126" y="175" width="7" height="7"/><rect x="133" y="175" width="7" height="7"/><rect x="147" y="175" width="7" height="7"/><rect x="154" y="175" width="7" height="7"/><rect x="182" y="175" width="7" height="7"/><rect x="203" y="175" width="7" height="7"/><rect x="210" y="175" width="7" height="7"/><rect x="70" y="182" width="7" height="7"/><rect x="91" y="182" width="7" height="7"/><rect x="98" y="182" width="7" height="7"/><rect x="105" y="182" width="7" height="7"/><rect x="119" y="182" width="7" height="7"/><rect x="126" y="182" width="7" height="7"/><rect x="147" y="182" width="7" height="7"/><rect x="154" y="182" width="7" height="7"/><rect x="161" y="182" width="7" height="7"/><rect x="168" y="182" width="7" height="7"/><rect x="175" y="182" width="7" height="7"/><rect x="182" y="182" width="7" height="7"/><rect x="189" y="182" width="7" height="7"/><rect x="70" y="189" width="7" height="7"/><rect x="98" y="189" width="7" height="7"/><rect x="105" y="189" width="7" height="7"/><rect x="112" y="189" width="7" height="7"/><rect x="126" y="189" width="7" height="7"/><rect x="133" y="189" width="7" height="7"/><rect x="140" y="189" width="7" height="7"/><rect x="147" y="189" width="7" height="7"/><rect x="154" y="189" width="7" height="7"/><rect x="161" y="189" width="7" height="7"/><rect x="175" y="189" width="7" height="7"/><rect x="203" y="189" width="7" height="7"/><rect x="84" y="196" width="7" height="7"/><rect x="105" y="196" width="7" height="7"/><rect x="126" y="196" width="7" height="7"/><rect x="161" y="196" width="7" height="7"/><rect x="175" y="196" width="7" height="7"/><rect x="182" y="196" width="7" height="7"/><rect x="196" y="196" width="7" height="7"/><rect x="203" y="196" width="7" height="7"/><rect x="210" y="196" width="7" height="7"/><rect x="91" y="203" width="7" height="7"/><rect x="105" y="203" width="7" height="7"/><rect x="119" y="203" width="7" height="7"/><rect x="161" y="203" width="7" height="7"/><rect x="175" y="203" width="7" height="7"/><rect x="189" y="203" width="7" height="7"/><rect x="196" y="203" width="7" height="7"/><rect x="210" y="203" width="7" height="7"/><rect x="70" y="210" width="7" height="7"/><rect x="91" y="210" width="7" height="7"/><rect x="98" y="210" width="7" height="7"/><rect x="133" y="210" width="7" height="7"/><rect x="140" y="210" width="7" height="7"/><rect x="147" y="210" width="7" height="7"/><rect x="154" y="210" width="7" height="7"/><rect x="168" y="210" width="7" height="7"/><rect x="182" y="210" width="7" height="7"/><rect x="189" y="210" width="7" height="7"/><rect x="21.35" y="21.35" width="34.3" height="34.3" fill="none"/><path d="M55.65,14H14V63H63V14Zm0,41.65H21.35V21.35h34.3Z"/><rect x="175.35" y="21.35" width="34.3" height="34.3" fill="none"/><path d="M209.65,14H168V63h49V14Zm0,41.65h-34.3V21.35h34.3Z"/><rect x="21.35" y="175.35" width="34.3" height="34.3" fill="none"/><path d="M55.65,168H14v49H63V168Zm0,41.65H21.35v-34.3h34.3Z"/><rect x="28" y="28" width="21" height="21"/><rect x="182" y="28" width="21" height="21"/><rect x="28" y="182" width="21" height="21"/></svg>