<svg id="Page-1" xmlns="http://www.w3.org/2000/svg" viewBox="0 0 16.8 16"><title>scan_doc_white</title><g id="Dribbble-Light-Preview"><g id="icons"><path id="done-" d="M15.12,2.4a.82.82,0,0,0-.84-.8H2.52a.82.82,0,0,0-.84.8h0V13.6a.82.82,0,0,0,.84.8H14.28a.82.82,0,0,0,.84-.8h0Zm1.68-.8V14.4A1.64,1.64,0,0,1,15.12,16H1.68A1.64,1.64,0,0,1,0,14.4H0V1.6A1.64,1.64,0,0,1,1.68,0H15.12A1.64,1.64,0,0,1,16.8,1.6Zm-5,4a.77.77,0,0,1,0,1.09h0L8.51,9.85a1.3,1.3,0,0,1-1.78,0L5.24,8.44a.76.76,0,0,1,0-1.07l0,0h0a.88.88,0,0,1,1.19,0L7,7.87a.86.86,0,0,0,1.19,0l2.38-2.26a.88.88,0,0,1,1.19,0Z" transform="translate(0 0)" fill="#fff" fill-rule="evenodd"/></g></g></svg>