<svg id="Page-1" xmlns="http://www.w3.org/2000/svg" viewBox="0 0 22 20"><title>scan</title><g id="Dribbble-Light-Preview"><g id="icons"><path id="camera-" d="M4,15v1H5a1,1,0,0,1,0,2H4v1a1,1,0,0,1-2,0V18H1a1,1,0,0,1,0-2H2V15a1,1,0,0,1,2,0Zm8,.5a2,2,0,1,1,2-2A2,2,0,0,1,12,15.5Zm0-6a4,4,0,1,0,4,4A4,4,0,0,0,12,9.5ZM15,4H9V3a1,1,0,0,1,1-1h4a1,1,0,0,1,1,1Zm6,0V3a1,1,0,0,0-2,0V4H17V2a2,2,0,0,0-2-2H9A2,2,0,0,0,7,2V4H4A2,2,0,0,0,2,6v6H4V7A1,1,0,0,1,5,6H19a1,1,0,0,1,1,1v8a1,1,0,0,1-1,1H18v2h2a2,2,0,0,0,2-2V4Z" fill="#8e8e8e" fill-rule="evenodd"/></g></g></svg>