<svg id="Page-1" xmlns="http://www.w3.org/2000/svg" viewBox="0 0 15.99 16"><title>sms</title><g id="Dribbble-Light-Preview"><g id="icons"><path id="message_three_points-" data-name="message three points-" d="M12.16,4.85a1.59,1.59,0,1,1-1.6,1.58,1.58,1.58,0,0,1,1.6-1.58h0M9.76,6.43a1.6,1.6,0,1,1-3.2,0A1.59,1.59,0,0,1,8.14,4.85h0a1.59,1.59,0,0,1,1.6,1.58h0m-4,0a1.6,1.6,0,1,1-3.2,0A1.59,1.59,0,0,1,4.14,4.85h0a1.59,1.59,0,0,1,1.6,1.58h0m4.77,4.21a3,3,0,0,0-2.18,1.5L8,12.76l-.35-.62a3,3,0,0,0-2.18-1.5A4.55,4.55,0,0,1,1.6,5.94C1.71,3.5,3.94,1.58,6.8,1.58h3l-.13.07A4.71,4.71,0,0,1,14.4,6a4.53,4.53,0,0,1-3.87,4.67M9.63,0H6.8C3.05,0,.15,2.58,0,5.88a6.1,6.1,0,0,0,5.24,6.3,1.43,1.43,0,0,1,1,.73L8,16l1.75-3.08a1.4,1.4,0,0,1,1-.7A6.13,6.13,0,0,0,16,5.88,6.32,6.32,0,0,0,9.63,0" transform="translate(0 0)" fill="#828282" fill-rule="evenodd"/></g></g></svg>