<svg id="Layer_1" data-name="Layer 1" xmlns="http://www.w3.org/2000/svg" xmlns:xlink="http://www.w3.org/1999/xlink" viewBox="0 0 63 121.45"><defs><clipPath id="clip-path" transform="translate(0 0)"><rect width="63" height="121.44" fill="none"/></clipPath></defs><title>smsvalidation</title><g id="Group_42" data-name="Group 42"><g clip-path="url(#clip-path)"><g id="Group_41" data-name="Group 41"><path id="Path_226" data-name="Path 226" d="M55.8,1.94l-37.89-.1H6.83a5,5,0,0,0-5,5h0v107.7a5,5,0,0,0,5,5l48.28.08a5,5,0,0,0,5-5V6.92a5,5,0,0,0-4.33-5" transform="translate(0 0)" fill="#fff"/><path id="Path_227" data-name="Path 227" d="M63,30.86V16.68a1.08,1.08,0,0,0-1-1.09V6.92A6.85,6.85,0,0,0,56.05.14L11.88,0h-5A6.82,6.82,0,0,0,0,6.81V114.53a6.85,6.85,0,0,0,6.84,6.84l48.27.07A6.82,6.82,0,0,0,62,114.63h0V44.15a1.08,1.08,0,0,0,1-1.09v-6.9a1.08,1.08,0,0,0-1-1.09V32a1.1,1.1,0,0,0,1-1.09m-2.87,83.76a5,5,0,0,1-5,5h0l-48.27-.08a5,5,0,0,1-5-5V6.83a5,5,0,0,1,5-5h5l43.92.11a5,5,0,0,1,4.33,5Z" transform="translate(0 0)" fill="#4976ff"/><path id="Path_228" data-name="Path 228" d="M25,117l12,0a1,1,0,0,0,1-1h0v-.64a1,1,0,0,0-1-1l-12,0a1,1,0,0,0-1,1h0V116a1,1,0,0,0,1,1" transform="translate(0 0)" fill="#dfd6f2"/><path id="Path_229" data-name="Path 229" d="M27,41,13.65,43.43a1.28,1.28,0,0,0-1,1.31l.89,14.95A22.16,22.16,0,0,0,25.23,77.94l5.15,2.74a1.26,1.26,0,0,0,1.19,0l5.14-2.74A22.14,22.14,0,0,0,48.44,59.69l.89-14.95a1.27,1.27,0,0,0-1-1.31L35,41a22,22,0,0,0-8,0" transform="translate(0 0)" fill="#4976ff"/><path id="Path_230" data-name="Path 230" d="M31,79.77l-.09,0L25.73,77A21.1,21.1,0,0,1,14.57,59.62l-.89-14.94a.2.2,0,0,1,.16-.21L27.16,42a21.27,21.27,0,0,1,7.63,0l13.32,2.45a.2.2,0,0,1,.16.21l-.89,14.94A21.12,21.12,0,0,1,36.22,77l-5.15,2.74-.1,0" transform="translate(0 0)" fill="#95b0ff"/><path id="Path_231" data-name="Path 231" d="M39.09,64.11H22.8a4.46,4.46,0,0,1-4.46-4.46h0v-.09a4.47,4.47,0,0,1,4.46-4.47H39.09a4.46,4.46,0,0,1,4.46,4.47h0v.09a4.46,4.46,0,0,1-4.46,4.46h0" transform="translate(0 0)" fill="#7598ff"/><path id="Path_232" data-name="Path 232" d="M39.09,62H22.8a4.47,4.47,0,0,1-4.46-4.47h0v-.09A4.46,4.46,0,0,1,22.8,53H39.09a4.46,4.46,0,0,1,4.46,4.46h0v.09A4.46,4.46,0,0,1,39.09,62h0" transform="translate(0 0)" fill="#fff"/><path id="Path_233" data-name="Path 233" d="M26,57.75a.09.09,0,0,1,0,.09.55.55,0,0,1-.1.22.48.48,0,0,1-.15.2.09.09,0,0,1-.1,0l-.84-.61.11,1a.07.07,0,0,1-.05.09,1,1,0,0,1-.48,0,.09.09,0,0,1-.06-.09l.11-1-.83.61a.11.11,0,0,1-.11,0,.75.75,0,0,1-.15-.2.73.73,0,0,1-.09-.22.09.09,0,0,1,.05-.09l.95-.42-.95-.42a.12.12,0,0,1-.05-.1.73.73,0,0,1,.09-.22.7.7,0,0,1,.15-.19.11.11,0,0,1,.11,0l.83.61-.11-1a.11.11,0,0,1,.06-.1,1,1,0,0,1,.48,0A.09.09,0,0,1,25,56l-.11,1,.84-.61a.09.09,0,0,1,.1,0,.45.45,0,0,1,.15.19.62.62,0,0,1,.1.22.12.12,0,0,1,0,.1l-1,.42Z" transform="translate(0 0)" fill="#4976ff"/><path id="Path_234" data-name="Path 234" d="M30,57.75a.07.07,0,0,1,.05.09.43.43,0,0,1-.09.22.75.75,0,0,1-.15.2.09.09,0,0,1-.1,0l-.84-.61.11,1a.07.07,0,0,1-.05.09,1,1,0,0,1-.49,0,.08.08,0,0,1-.05-.09l.11-1-.83.61a.11.11,0,0,1-.11,0,.75.75,0,0,1-.15-.2.54.54,0,0,1-.09-.22.08.08,0,0,1,.05-.09l.95-.42-.95-.42a.1.1,0,0,1-.05-.1.54.54,0,0,1,.09-.22.7.7,0,0,1,.15-.19.11.11,0,0,1,.11,0l.83.61-.11-1a.1.1,0,0,1,.05-.1,1,1,0,0,1,.49,0A.09.09,0,0,1,29,56l-.11,1,.84-.61a.09.09,0,0,1,.1,0,.7.7,0,0,1,.15.19.47.47,0,0,1,.09.22.09.09,0,0,1-.05.1l-.95.42Z" transform="translate(0 0)" fill="#4976ff"/><path id="Path_235" data-name="Path 235" d="M34,57.75a.07.07,0,0,1,.05.09.73.73,0,0,1-.09.22.75.75,0,0,1-.15.2.09.09,0,0,1-.1,0l-.84-.61.11,1a.07.07,0,0,1-.05.09,1,1,0,0,1-.49,0,.07.07,0,0,1,0-.09l.11-1-.84.61a.09.09,0,0,1-.1,0,.48.48,0,0,1-.15-.2.43.43,0,0,1-.09-.22.07.07,0,0,1,.05-.09l.95-.42-.95-.42a.09.09,0,0,1-.05-.1.43.43,0,0,1,.09-.22.55.55,0,0,1,.15-.19.09.09,0,0,1,.1,0l.84.61-.11-1a.09.09,0,0,1,0-.1,1,1,0,0,1,.49,0A.09.09,0,0,1,33,56l-.11,1,.84-.61a.09.09,0,0,1,.1,0,.7.7,0,0,1,.15.19.6.6,0,0,1,.09.22.09.09,0,0,1-.05.1l-.95.42Z" transform="translate(0 0)" fill="#4976ff"/><path id="Path_236" data-name="Path 236" d="M38.06,57.75a.08.08,0,0,1,0,.09,1.32,1.32,0,0,1-.24.42.09.09,0,0,1-.1,0l-.84-.61.11,1a.08.08,0,0,1,0,.09,1,1,0,0,1-.49,0,.07.07,0,0,1,0-.09l.11-1-.84.61a.09.09,0,0,1-.1,0,.48.48,0,0,1-.15-.2.55.55,0,0,1-.1-.22.09.09,0,0,1,.06-.09l.94-.42-.94-.42a.11.11,0,0,1-.06-.1.55.55,0,0,1,.1-.22.45.45,0,0,1,.15-.19.09.09,0,0,1,.1,0l.84.61-.11-1a.09.09,0,0,1,0-.1,1,1,0,0,1,.49,0,.1.1,0,0,1,0,.1l-.11,1,.84-.61a.09.09,0,0,1,.1,0,.52.52,0,0,1,.14.19.62.62,0,0,1,.1.22.09.09,0,0,1,0,.1l-1,.42Z" transform="translate(0 0)" fill="#4976ff"/></g></g></g></svg>