<svg id="Layer_1" data-name="Layer 1" xmlns="http://www.w3.org/2000/svg" viewBox="0 0 38 24"><title>visa</title><g id="visa-outline"><path id="Path_34" data-name="Path 34" d="M33,1a4,4,0,0,1,4,4V19a4,4,0,0,1-4,4H5a4,4,0,0,1-4-4V5A4,4,0,0,1,5,1H33m0-1H5A5,5,0,0,0,0,5V19a5,5,0,0,0,5,5H33a5,5,0,0,0,5-5V5A5,5,0,0,0,33,0Z" fill="#fff"/><path id="Path_35" data-name="Path 35" d="M15.76,8.56l-2.87,6.89H11L9.61,10a.75.75,0,0,0-.42-.61A7.6,7.6,0,0,0,7.45,8.8V8.6h3a.83.83,0,0,1,.82.71l.74,4,1.84-4.69Zm7.33,4.64c0-1.81-2.5-1.91-2.48-2.73,0-.24.24-.51.75-.57a3.31,3.31,0,0,1,1.75.3l.31-1.46a4.92,4.92,0,0,0-1.66-.3c-1.75,0-3,.93-3,2.28,0,1,.88,1.54,1.55,1.87s.92.56.92.86c0,.46-.55.66-1.06.67a3.62,3.62,0,0,1-1.82-.43L18,15.2a5.28,5.28,0,0,0,2,.36c1.86,0,3.07-.92,3.08-2.36m4.62,2.25h1.63L27.91,8.56h-1.5a.83.83,0,0,0-.76.51L23,15.45h1.86l.36-1h2.27ZM25.7,13l.94-2.58L27.2,13ZM18.26,8.56,16.8,15.45H15.06l1.46-6.89Z" fill="#fff"/></g></svg>