<svg id="Page-1" xmlns="http://www.w3.org/2000/svg" viewBox="0 0 20 20"><title>deconnexion</title><g id="Dribbble-Light-Preview"><g id="icons"><path id="arrow_in_left-" data-name="arrow in left-" d="M13.33,14.27h0a1,1,0,0,0,.05-1.41l-1-1a.5.5,0,0,1,0-.71.51.51,0,0,1,.33-.13H19a1,1,0,0,0,0-2H12.8a.5.5,0,0,1-.5-.5.46.46,0,0,1,.14-.35l.93-1a1,1,0,0,0,0-1.41h0a1,1,0,0,0-1.4,0L9.24,8.66a2,2,0,0,0,0,2.76l2.68,2.81a1,1,0,0,0,1.4,0M1.78,20H8.22A1.78,1.78,0,0,0,10,18.22V17a1,1,0,0,0-1-1H9a1,1,0,0,0-1,1H8v0a1,1,0,0,1-1,1H3a1,1,0,0,1-1-1H2V3A1,1,0,0,1,3,2H7A1,1,0,0,1,8,3H8V3A1,1,0,0,0,9,4H9a1,1,0,0,0,1-1h0V1.78A1.78,1.78,0,0,0,8.22,0H1.78A1.78,1.78,0,0,0,0,1.78V18.22A1.78,1.78,0,0,0,1.78,20" transform="translate(0 0)" fill="#3142ba" fill-rule="evenodd"/></g></g></svg>