<svg id="Page-1" xmlns="http://www.w3.org/2000/svg" viewBox="0 0 19.98 20"><title>profile</title><g id="Dribbble-Light-Preview"><g id="icons"><path id="profile_round-" data-name="profile round-" d="M14.08,6a4.08,4.08,0,1,0-4.16,4H10a4,4,0,0,0,4.08-4M18,20H16.12a1,1,0,0,1,0-2h.44a1,1,0,0,0,1-1,1.13,1.13,0,0,0-.06-.36,8.39,8.39,0,0,0-15,0,1,1,0,0,0,.6,1.28,1,1,0,0,0,.36.06h.43a1,1,0,1,1,0,2H2.05a2,2,0,0,1-2-2,2.69,2.69,0,0,1,0-.4,9.57,9.57,0,0,1,6.12-7A6,6,0,0,1,3.87,6a6.14,6.14,0,0,1,12.18-.93,5.92,5.92,0,0,1-2.21,5.6,9.57,9.57,0,0,1,6.12,7A2,2,0,0,1,18.35,20a2.69,2.69,0,0,1-.4,0m-4.89-1a1,1,0,0,1-1,1H8a1,1,0,0,1,0-2H12a1,1,0,0,1,1,1" transform="translate(-0.01 0)" fill="#3142ba" fill-rule="evenodd"/></g></g></svg>