<svg id="Page-1" xmlns="http://www.w3.org/2000/svg" viewBox="0 0 14 19.97"><title>securite</title><g id="Dribbble-Light-Preview"><g id="icons"><path id="lock_circle_close_round-" data-name="lock circle close round-" d="M7,12a1,1,0,1,1-1,1A1,1,0,0,1,7,12Zm0,4a3,3,0,1,0-3-3A3,3,0,0,0,7,16Zm5,1a1,1,0,0,1-1,1H3a1,1,0,0,1-1-1V9A1,1,0,0,1,3,8h8a1,1,0,0,1,1,1ZM5,4A2,2,0,0,1,7,2,2.07,2.07,0,0,1,9,4V6H5Zm6,2V4A4.08,4.08,0,0,0,6.82,0,3.7,3.7,0,0,0,6.16.1,4.24,4.24,0,0,0,3,4.29V6H2A2,2,0,0,0,0,8V18a2,2,0,0,0,2,2H12a2,2,0,0,0,2-2V8a2,2,0,0,0-2-2Z" transform="translate(0 -0.02)" fill="#3142ba" fill-rule="evenodd"/></g></g></svg>